<?xml version="1.0" encoding="UTF-8"?>
<svg id="Layer_1" xmlns="http://www.w3.org/2000/svg" version="1.1" viewBox="0 0 1000 1000">
  <!-- Generator: Adobe Illustrator 29.3.1, SVG Export Plug-In . SVG Version: 2.1.0 Build 151)  -->
  <defs>
    <style>
      .st0 {
        fill: #939393;
      }

      .st1 {
        fill: #727272;
      }

      .st2, .st3 {
        fill: #231f20;
      }

      .st4 {
        fill: #737372;
      }

      .st5 {
        fill: #919191;
      }

      .st6 {
        fill: #00aeef;
      }

      .st7 {
        fill: #030303;
        stroke: #231f20;
      }

      .st7, .st3 {
        stroke-miterlimit: 10;
      }

      .st8 {
        fill: #a09f9f;
      }

      .st3 {
        stroke: #000;
        stroke-width: .25px;
      }

      .st9 {
        fill: #9a999a;
      }
    </style>
  </defs>
  <path class="st1" d="M478.07,461.37c-.27.85-.6.83-.97,0v-1.94c.98.21.97,1.1.97,1.94Z"/>
  <path class="st1" d="M477.1,462v-1.94c.27-.85.6-.83.97,0,0,.84.01,1.73-.97,1.94Z"/>
  <path class="st0" d="M477.1,461.69v-1.94h.97c0,.84.01,1.73-.97,1.94Z"/>
  <path class="st5" d="M478.07,461.69h-.97v-1.94c.98.21.97,1.1.97,1.94Z"/>
  <g>
    <polygon class="st6" points="594.22 433.31 594.22 450 603.66 450 603.66 550.85 594.22 550.85 594.22 566.81 592.05 566.81 592.05 550.85 581.89 550.85 581.89 450 592.05 450 592.05 433.31 594.22 433.31"/>
    <path class="st6" d="M563.03,496.43v18.14c2.09.34,8.82-.78,9.84.68l.22,54.72c-.75,2.28-7.92.77-10.06,1.19v16.69h-2.18v-16.69c-2.09-.34-8.82.78-9.84-.68l-.22-54.72c.75-2.28,7.92-.77,10.06-1.19v-18.14h2.18Z"/>
    <polygon class="st3" points="445.49 494.26 445.49 518.93 455.64 518.93 455.64 584.95 445.49 584.95 445.49 609.62 443.31 609.62 443.31 584.95 433.15 584.95 433.15 518.93 443.31 518.93 443.31 494.26 445.49 494.26"/>
    <path class="st3" d="M415.74,487.73v16.69c1.57.22,10.16-.74,10.16,1.09v44.62h-10.16v16.69h-2.18v-16.69h-10.16v-44.62c0-1.83,8.59-.87,10.16-1.09v-16.69h2.18Z"/>
    <path class="st3" d="M503.53,550.85v18.14h10.16v44.98h-10.16v15.96h-2.18v-15.96c-2.09-.34-8.82.78-9.84-.68l-.22-43.12c.75-2.28,7.92-.77,10.06-1.19v-18.14h2.18Z"/>
    <path class="st3" d="M474.51,558.83v13.79h10.16v37h-10.16v13.79h-2.18v-13.79h-10.16v-35.91c0-1.82,8.46-.87,10.16-1.08,1.15-1.15-2.3-13.59,2.17-13.79Z"/>
    <path class="st6" d="M520.94,550.85h9.44c-1.24-14.4,4.13-14.43,2.89,0h9.44s0,34.1,0,34.1h-9.43v12.7c0,1.25-2.9,1.25-2.9,0v-12.7h-9.43v-34.1Z"/>
    <path class="st7" d="M632.67,411.54c-2.45-2.03-6.38.69-6.9.64-.28-.02-3.22-3.94-3.42-4.45-1.67-4.11,1.83-16.63,2.34-21.95.87-9.01.63-18.49,1.42-27.6.11-1.26-.1-2.38,1.13-3.22l5.43,56.59Z"/>
    <path class="st9" d="M406.31,382.52c1.09-.19,2.63-1.41,4.35-.72.24.89-1.18,1-2.17,1.44l-2.18-.73Z"/>
    <path class="st8" d="M567.38,349.15l-1.45.73c-.99-.44-2.41-.55-2.17-1.44,1.49-.69,2.94.63,3.62.72Z"/>
    <path class="st2" d="M406.31,382.52c-1.43.25-9.05,1.83-9.43,1.45l-2.88-30.86c-13.22-3.42-28.78-5.45-39.2-14.85,34.75-10.67,67.73-26.28,101.93-38.48,9.48-3.38,29.82-11.47,39.1-10.79,6.44.47,17.05,4.77,23.51,6.98,27.87,9.51,55.18,22.1,82.7,32.67,9.23,3.54,18.91,7.44,28.47,9.62,1.62,1.49-8.66,6.92-9.67,7.38-15.41,6.97-36.94,5.67-53.45,3.5-1.72-.14-2.2.11-1.45.73,5.7,2.54,16.23,5.28,19.49,10.63,1.57,2.57,4.8,12.21,5.1,15.21,1.01,9.9-3.26,7.59-10.53,6.9-.81-.08-2.61-.67-2.44.63,16.48,5.58,31.7,20.33,41.2,34.62.67,1,1.78,1.79,1.6,3.11-26.66-12.85-52.72-28.09-81.68-35.49-84.98-21.73-176.65,38.05-201.48,119.83-5.9,19.44-5.4,42.52-11.42,60.05-.56,1.21-1.23,1.42-1.45,0-2.45-33.28-4.28-58.86,7.24-91.07,12.18-34.05,43.33-76.18,76.92-91.04.3-.67-.42-.92-2.18-.73Z"/>
    <path class="st2" d="M628.33,616.16c-35.9,67.25-126.26,89.01-190.76,48.91-44.65-27.76-77.07-82.29-67.53-135.98,1.22.2,1.3,1.41,1.65,2.33,5.39,14.17,7.86,30.71,13.76,45.73,23.43,59.66,75.99,93.6,140.93,89.78,45.38-2.67,64.49-25.6,98.41-48.88.69-.48,2.91-2.47,3.54-1.9Z"/>
    <path class="st2" d="M417.91,426.06c-15.94,17.87-33.2,35-45.11,56.1-39.49,69.98-5.28,164.49,68.56,194.34l39.66,15.83c-79.59,3.83-146.91-66.38-142.96-145.5,2.43-48.72,31.84-104.26,79.84-120.77Z"/>
    <path class="st4" d="M325.77,565.36c-.3.87-.17,2.02-1.44,2.18-.05-.72.05-1.46,0-2.18h1.45Z"/>
  </g>
</svg>